# xmcd
#
# Track frame offsets:
#	150
#	18272
#	40922
#	65420
#	91602
#	121597
#	142430
#	162612
#	186417
#	202540
#	233209
#
# Disc length: 3328 seconds
# Revision: 3
# Processed by: cddbd v1.5.2PL0 Copyright (c) Steve Scherf et al.
# Submitted via: dBpowerAMP V12.0
#
DISCID=8f0cfe0b
DTITLE=Backtrack Blues Band - Boogie Shack
DYEAR=1995
DGENRE=blues
TTITLE0=Best I'll Ever Find (The Big One)
TTITLE1=Tell Your Daddy
TTITLE2=Boogie Shack
TTITLE3=You Move too Slow
TTITLE4=Don't Throw Our Love Away
TTITLE5=Take Me Back Baby
TTITLE6=Pretty, Pretty Baby
TTITLE7=Man of Steel
TTITLE8=Take Heed (To What I Say)
TTITLE9=Tropical Depression
TTITLE10=Cryin' Shame
EXTD=
EXTT0=
EXTT1=
EXTT2=
EXTT3=
EXTT4=
EXTT5=
EXTT6=
EXTT7=
EXTT8=
EXTT9=
EXTT10=
PLAYORDER=
